<svg xmlns="http://www.w3.org/2000/svg" xmlns:xlink="http://www.w3.org/1999/xlink" width="500" zoomAndPan="magnify" viewBox="0 0 375 374.999991" height="500" preserveAspectRatio="xMidYMid meet" version="1.0"><defs><clipPath id="68a94c6175"><path d="M 73.828125 87.839844 L 134.578125 87.839844 L 134.578125 148.589844 L 73.828125 148.589844 Z M 73.828125 87.839844 " clip-rule="nonzero"/></clipPath><clipPath id="137633c93a"><path d="M 244.804688 70.097656 L 301.054688 70.097656 L 301.054688 163.847656 L 244.804688 163.847656 Z M 244.804688 70.097656 " clip-rule="nonzero"/></clipPath></defs><rect x="-37.5" width="450" fill="#ffffff" y="-37.499999" height="449.999989" fill-opacity="1"/><rect x="-37.5" width="450" fill="#faeab3" y="-37.499999" height="449.999989" fill-opacity="1"/><g clip-path="url(#68a94c6175)"><path fill="#843030" d="M 134.941406 118.394531 C 134.941406 119.394531 134.890625 120.394531 134.792969 121.390625 C 134.695312 122.386719 134.550781 123.375 134.355469 124.355469 C 134.160156 125.339844 133.914062 126.308594 133.625 127.265625 C 133.335938 128.222656 133 129.164062 132.617188 130.089844 C 132.230469 131.015625 131.804688 131.917969 131.332031 132.800781 C 130.863281 133.683594 130.347656 134.539062 129.792969 135.371094 C 129.234375 136.203125 128.640625 137.007812 128.003906 137.78125 C 127.371094 138.554688 126.699219 139.292969 125.992188 140.003906 C 125.285156 140.710938 124.542969 141.382812 123.769531 142.015625 C 122.996094 142.652344 122.191406 143.246094 121.359375 143.800781 C 120.527344 144.359375 119.671875 144.871094 118.789062 145.34375 C 117.90625 145.816406 117.003906 146.242188 116.078125 146.625 C 115.152344 147.007812 114.210938 147.347656 113.253906 147.636719 C 112.296875 147.925781 111.328125 148.167969 110.347656 148.363281 C 109.363281 148.558594 108.375 148.707031 107.378906 148.804688 C 106.382812 148.902344 105.386719 148.953125 104.382812 148.953125 C 103.382812 148.953125 102.386719 148.902344 101.390625 148.804688 C 100.394531 148.707031 99.40625 148.558594 98.421875 148.363281 C 97.441406 148.167969 96.472656 147.925781 95.515625 147.636719 C 94.558594 147.347656 93.617188 147.007812 92.691406 146.625 C 91.765625 146.242188 90.863281 145.816406 89.980469 145.34375 C 89.097656 144.871094 88.242188 144.359375 87.410156 143.800781 C 86.574219 143.246094 85.773438 142.652344 85 142.015625 C 84.226562 141.382812 83.484375 140.710938 82.777344 140.003906 C 82.070312 139.292969 81.398438 138.554688 80.765625 137.78125 C 80.128906 137.007812 79.535156 136.203125 78.976562 135.371094 C 78.421875 134.539062 77.90625 133.683594 77.4375 132.800781 C 76.964844 131.917969 76.535156 131.011719 76.152344 130.089844 C 75.769531 129.164062 75.433594 128.222656 75.144531 127.265625 C 74.851562 126.308594 74.609375 125.339844 74.414062 124.355469 C 74.21875 123.375 74.074219 122.386719 73.976562 121.390625 C 73.878906 120.394531 73.828125 119.394531 73.828125 118.394531 C 73.828125 117.394531 73.878906 116.394531 73.976562 115.402344 C 74.074219 114.40625 74.21875 113.414062 74.414062 112.433594 C 74.609375 111.453125 74.851562 110.484375 75.144531 109.527344 C 75.433594 108.566406 75.769531 107.625 76.152344 106.703125 C 76.535156 105.777344 76.964844 104.875 77.4375 103.992188 C 77.90625 103.109375 78.421875 102.25 78.976562 101.417969 C 79.535156 100.585938 80.128906 99.785156 80.765625 99.011719 C 81.398438 98.238281 82.070312 97.496094 82.777344 96.789062 C 83.484375 96.082031 84.226562 95.410156 85 94.773438 C 85.773438 94.140625 86.574219 93.542969 87.410156 92.988281 C 88.242188 92.433594 89.097656 91.917969 89.980469 91.445312 C 90.863281 90.976562 91.765625 90.546875 92.691406 90.164062 C 93.617188 89.78125 94.558594 89.445312 95.515625 89.15625 C 96.472656 88.863281 97.441406 88.621094 98.421875 88.425781 C 99.40625 88.230469 100.394531 88.085938 101.390625 87.984375 C 102.386719 87.886719 103.382812 87.839844 104.382812 87.839844 C 105.386719 87.839844 106.382812 87.886719 107.378906 87.984375 C 108.375 88.085938 109.363281 88.230469 110.347656 88.425781 C 111.328125 88.621094 112.296875 88.863281 113.253906 89.15625 C 114.210938 89.445312 115.152344 89.78125 116.078125 90.164062 C 117.003906 90.546875 117.90625 90.976562 118.789062 91.445312 C 119.671875 91.917969 120.527344 92.433594 121.359375 92.988281 C 122.191406 93.542969 122.996094 94.140625 123.769531 94.773438 C 124.542969 95.410156 125.285156 96.082031 125.992188 96.789062 C 126.699219 97.496094 127.371094 98.238281 128.003906 99.011719 C 128.640625 99.785156 129.234375 100.585938 129.792969 101.417969 C 130.347656 102.25 130.863281 103.109375 131.332031 103.992188 C 131.804688 104.875 132.230469 105.777344 132.617188 106.703125 C 133 107.625 133.335938 108.566406 133.625 109.527344 C 133.914062 110.484375 134.160156 111.453125 134.355469 112.433594 C 134.550781 113.414062 134.695312 114.40625 134.792969 115.402344 C 134.890625 116.394531 134.941406 117.394531 134.941406 118.394531 Z M 134.941406 118.394531 " fill-opacity="1" fill-rule="nonzero"/></g><g clip-path="url(#137633c93a)"><path fill="#843030" d="M 291.324219 163.539062 L 244.8125 117.027344 L 291.648438 70.191406 L 301.171875 79.714844 L 263.859375 117.027344 L 300.847656 154.015625 L 291.324219 163.539062 " fill-opacity="1" fill-rule="nonzero"/></g><path fill="#843030" d="M 22.75 227.375 C 54.8125 262.621094 98.332031 286.921875 145.179688 295.675781 C 194.082031 304.816406 245.273438 297.789062 289.644531 275.179688 C 313.132812 263.210938 334.4375 246.871094 352.167969 227.375 C 358.09375 220.863281 348.429688 211.144531 342.480469 217.683594 C 312.121094 251.066406 271.59375 273.703125 227.289062 282.238281 C 181.640625 291.035156 133.054688 284.308594 91.671875 263.082031 C 69.324219 251.617188 49.335938 236.261719 32.441406 217.683594 C 26.492188 211.148438 16.824219 220.859375 22.75 227.375 " fill-opacity="1" fill-rule="nonzero"/><path fill="#843030" d="M 235.515625 287.773438 C 249.296875 266.628906 262.714844 245.238281 275.925781 223.738281 C 281.492188 214.683594 291.085938 202.214844 303.332031 203.738281 C 307.128906 204.210938 309.761719 207.191406 310.890625 211.582031 C 312.660156 218.460938 311.34375 225.855469 309.132812 232.464844 C 306.878906 239.21875 303.367188 245.535156 299.382812 251.414062 C 297.214844 254.617188 296.042969 256.285156 293.574219 259.027344 C 288.667969 264.480469 296.71875 272.578125 301.648438 267.101562 C 308.886719 259.0625 314.691406 249.421875 318.703125 239.40625 C 323.996094 226.203125 327.050781 204.828125 313.203125 195.53125 C 301.265625 187.519531 285.53125 195.300781 276.46875 204.058594 C 269.5 210.796875 264.980469 219.765625 259.929688 227.921875 C 254.65625 236.429688 249.34375 244.914062 243.992188 253.371094 C 237.933594 262.949219 231.847656 272.515625 225.65625 282.011719 C 221.632812 288.183594 231.511719 293.914062 235.515625 287.773438 " fill-opacity="1" fill-rule="nonzero"/><path fill="#843030" d="M 269.84375 277.425781 C 282.386719 264.976562 291.210938 247.664062 295.832031 230.804688 C 297.390625 225.128906 288.578125 222.703125 287.027344 228.375 C 282.808594 243.753906 274.84375 259.597656 263.382812 270.96875 C 259.207031 275.117188 265.664062 281.574219 269.84375 277.425781 " fill-opacity="1" fill-rule="nonzero"/></svg>